<svg id="visual" viewBox="0 0 900 600" width="900" height="600" xmlns="http://www.w3.org/2000/svg" xmlns:xlink="http://www.w3.org/1999/xlink" version="1.1"><g stroke-width="1" stroke-linejoin="bevel"><path d="M421.7 320L346.7 330L428 364Z" fill="#852271" stroke="#852271"></path><path d="M346.7 330L409 405L428 364Z" fill="#ca0152" stroke="#ca0152"></path><path d="M421.7 320L338.4 297L346.7 330Z" fill="#d91540" stroke="#d91540"></path><path d="M346.7 330L389.4 422L409 405Z" fill="#9f176b" stroke="#9f176b"></path><path d="M409 405L450 393L428 364Z" fill="#ca0152" stroke="#ca0152"></path><path d="M428 364L503.3 296L421.7 320Z" fill="#b60760" stroke="#b60760"></path><path d="M452 518L450 393L409 405Z" fill="#322d66" stroke="#322d66"></path><path d="M310.4 412L389.4 422L346.7 330Z" fill="#b60760" stroke="#b60760"></path><path d="M310.4 412L363.7 435L389.4 422Z" fill="#692a72" stroke="#692a72"></path><path d="M389.4 422L416 511L409 405Z" fill="#9f176b" stroke="#9f176b"></path><path d="M363.7 435L378.4 441L389.4 422Z" fill="#e74800" stroke="#e74800"></path><path d="M239.9 347L310.4 412L346.7 330Z" fill="#4d2d6e" stroke="#4d2d6e"></path><path d="M438.7 219L403 234L421.7 320Z" fill="#9f176b" stroke="#9f176b"></path><path d="M421.7 320L403 234L338.4 297Z" fill="#852271" stroke="#852271"></path><path d="M323.4 239L286.1 284L338.4 297Z" fill="#e32f29" stroke="#e32f29"></path><path d="M338.4 297L286.1 284L346.7 330Z" fill="#d91540" stroke="#d91540"></path><path d="M403 234L323.4 239L338.4 297Z" fill="#b60760" stroke="#b60760"></path><path d="M450 393L503.3 296L428 364Z" fill="#ca0152" stroke="#ca0152"></path><path d="M503.3 296L438.7 219L421.7 320Z" fill="#e74800" stroke="#e74800"></path><path d="M403 234L341.4 160L323.4 239Z" fill="#ca0152" stroke="#ca0152"></path><path d="M503.3 296L509.6 273L438.7 219Z" fill="#9f176b" stroke="#9f176b"></path><path d="M562.3 446L525.3 386L450 393Z" fill="#692a72" stroke="#692a72"></path><path d="M450 393L525.3 386L503.3 296Z" fill="#d91540" stroke="#d91540"></path><path d="M503.3 296L592.9 278L509.6 273Z" fill="#322d66" stroke="#322d66"></path><path d="M286.1 284L239.9 347L346.7 330Z" fill="#d91540" stroke="#d91540"></path><path d="M525.3 386L553.3 345L503.3 296Z" fill="#322d66" stroke="#322d66"></path><path d="M328.4 558L416 511L378.4 441Z" fill="#e32f29" stroke="#e32f29"></path><path d="M378.4 441L416 511L389.4 422Z" fill="#d91540" stroke="#d91540"></path><path d="M328.4 558L378.4 441L363.7 435Z" fill="#e74800" stroke="#e74800"></path><path d="M241.9 459L363.7 435L310.4 412Z" fill="#e32f29" stroke="#e32f29"></path><path d="M423.7 172L399.7 173L438.7 219Z" fill="#ca0152" stroke="#ca0152"></path><path d="M438.7 219L399.7 173L403 234Z" fill="#852271" stroke="#852271"></path><path d="M323.4 239L249.9 239L286.1 284Z" fill="#e74800" stroke="#e74800"></path><path d="M286.1 284L232.9 264L239.9 347Z" fill="#ca0152" stroke="#ca0152"></path><path d="M341.4 160L249.9 239L323.4 239Z" fill="#e32f29" stroke="#e32f29"></path><path d="M249.9 239L232.9 264L286.1 284Z" fill="#692a72" stroke="#692a72"></path><path d="M202.1 375L220.9 408L239.9 347Z" fill="#e74800" stroke="#e74800"></path><path d="M239.9 347L220.9 408L310.4 412Z" fill="#ca0152" stroke="#ca0152"></path><path d="M473.3 178L423.7 172L438.7 219Z" fill="#d91540" stroke="#d91540"></path><path d="M416 511L452 518L409 405Z" fill="#e32f29" stroke="#e32f29"></path><path d="M525.3 386L571.6 417L553.3 345Z" fill="#322d66" stroke="#322d66"></path><path d="M220.9 408L241.9 459L310.4 412Z" fill="#b60760" stroke="#b60760"></path><path d="M232.9 264L204.1 336L239.9 347Z" fill="#322d66" stroke="#322d66"></path><path d="M204.1 336L203.1 348L239.9 347Z" fill="#852271" stroke="#852271"></path><path d="M203.1 348L202.1 375L239.9 347Z" fill="#e32f29" stroke="#e32f29"></path><path d="M202.1 505L233.1 511L241.9 459Z" fill="#ca0152" stroke="#ca0152"></path><path d="M512.3 200L438.7 219L509.6 273Z" fill="#d91540" stroke="#d91540"></path><path d="M512.3 200L473.3 178L438.7 219Z" fill="#9f176b" stroke="#9f176b"></path><path d="M343.4 128L399.7 173L433.7 111Z" fill="#ca0152" stroke="#ca0152"></path><path d="M343.4 128L341.4 160L399.7 173Z" fill="#692a72" stroke="#692a72"></path><path d="M399.7 173L341.4 160L403 234Z" fill="#852271" stroke="#852271"></path><path d="M523 200L512.3 200L509.6 273Z" fill="#ca0152" stroke="#ca0152"></path><path d="M562.3 446L571.6 417L525.3 386Z" fill="#852271" stroke="#852271"></path><path d="M422.7 546L441.7 540L416 511Z" fill="#e32f29" stroke="#e32f29"></path><path d="M416 511L441.7 540L452 518Z" fill="#852271" stroke="#852271"></path><path d="M543.3 500L562.3 446L450 393Z" fill="#4d2d6e" stroke="#4d2d6e"></path><path d="M592.9 278L523 200L509.6 273Z" fill="#852271" stroke="#852271"></path><path d="M512.3 200L557.6 130L473.3 178Z" fill="#ca0152" stroke="#ca0152"></path><path d="M592.9 278L503.3 296L553.3 345Z" fill="#e32f29" stroke="#e32f29"></path><path d="M543.3 500L450 393L452 518Z" fill="#852271" stroke="#852271"></path><path d="M328.4 558L422.7 546L416 511Z" fill="#162b5a" stroke="#162b5a"></path><path d="M622.6 364L592.9 278L553.3 345Z" fill="#b60760" stroke="#b60760"></path><path d="M526.6 552L543.3 500L452 518Z" fill="#852271" stroke="#852271"></path><path d="M241.9 459L328.4 558L363.7 435Z" fill="#e32f29" stroke="#e32f29"></path><path d="M433.7 111L399.7 173L423.7 172Z" fill="#e74800" stroke="#e74800"></path><path d="M341.4 160L234.1 155L249.9 239Z" fill="#e74800" stroke="#e74800"></path><path d="M165.6 424L241.9 459L220.9 408Z" fill="#322d66" stroke="#322d66"></path><path d="M241.9 459L233.1 511L328.4 558Z" fill="#322d66" stroke="#322d66"></path><path d="M232.9 264L160.6 339L204.1 336Z" fill="#692a72" stroke="#692a72"></path><path d="M204.1 336L160.6 339L203.1 348Z" fill="#b60760" stroke="#b60760"></path><path d="M203.1 348L160.6 339L202.1 375Z" fill="#b60760" stroke="#b60760"></path><path d="M202.1 375L165.6 424L220.9 408Z" fill="#d91540" stroke="#d91540"></path><path d="M134.9 338L90.3 276L90.6 310Z" fill="#322d66" stroke="#322d66"></path><path d="M234.1 155L232.9 264L249.9 239Z" fill="#d91540" stroke="#d91540"></path><path d="M160.6 339L165.6 424L202.1 375Z" fill="#d91540" stroke="#d91540"></path><path d="M562.3 446L576.9 487L571.6 417Z" fill="#9f176b" stroke="#9f176b"></path><path d="M571.6 417L622.6 364L553.3 345Z" fill="#b60760" stroke="#b60760"></path><path d="M543.3 500L576.9 487L562.3 446Z" fill="#ca0152" stroke="#ca0152"></path><path d="M526.6 552L576.9 487L543.3 500Z" fill="#162b5a" stroke="#162b5a"></path><path d="M688.9 392L622.6 364L571.6 417Z" fill="#b60760" stroke="#b60760"></path><path d="M444 111L423.7 172L473.3 178Z" fill="#692a72" stroke="#692a72"></path><path d="M444 111L433.7 111L423.7 172Z" fill="#d91540" stroke="#d91540"></path><path d="M433.7 111L335.4 111L343.4 128Z" fill="#ca0152" stroke="#ca0152"></path><path d="M343.4 128L316.1 111L341.4 160Z" fill="#d91540" stroke="#d91540"></path><path d="M165.6 424L202.1 505L241.9 459Z" fill="#ca0152" stroke="#ca0152"></path><path d="M302.1 600L367.4 600L328.4 558Z" fill="#e74800" stroke="#e74800"></path><path d="M557.6 130L444 111L473.3 178Z" fill="#322d66" stroke="#322d66"></path><path d="M557.6 130L512.3 200L523 200Z" fill="#4d2d6e" stroke="#4d2d6e"></path><path d="M316.1 111L234.1 155L341.4 160Z" fill="#d91540" stroke="#d91540"></path><path d="M335.4 111L316.1 111L343.4 128Z" fill="#9f176b" stroke="#9f176b"></path><path d="M440.7 600L526.6 552L441.7 540Z" fill="#9f176b" stroke="#9f176b"></path><path d="M441.7 540L526.6 552L452 518Z" fill="#4d2d6e" stroke="#4d2d6e"></path><path d="M440.7 600L441.7 540L422.7 546Z" fill="#162b5a" stroke="#162b5a"></path><path d="M610.6 187L571.3 175L592.9 278Z" fill="#852271" stroke="#852271"></path><path d="M592.9 278L571.3 175L523 200Z" fill="#322d66" stroke="#322d66"></path><path d="M134.9 338L160.6 339L90.3 276Z" fill="#692a72" stroke="#692a72"></path><path d="M160.6 339L134.9 338L165.6 424Z" fill="#b60760" stroke="#b60760"></path><path d="M302.1 600L328.4 558L249.9 600Z" fill="#692a72" stroke="#692a72"></path><path d="M328.4 558L367.4 600L422.7 546Z" fill="#ca0152" stroke="#ca0152"></path><path d="M367.4 600L423 600L422.7 546Z" fill="#322d66" stroke="#322d66"></path><path d="M423 600L440.7 600L422.7 546Z" fill="#322d66" stroke="#322d66"></path><path d="M249.9 600L328.4 558L233.1 511Z" fill="#692a72" stroke="#692a72"></path><path d="M622.6 364L652.9 281L592.9 278Z" fill="#b60760" stroke="#b60760"></path><path d="M652.9 281L610.6 187L592.9 278Z" fill="#852271" stroke="#852271"></path><path d="M571.3 175L557.6 130L523 200Z" fill="#852271" stroke="#852271"></path><path d="M636.9 140L557.6 130L571.3 175Z" fill="#852271" stroke="#852271"></path><path d="M688.9 392L674.1 355L622.6 364Z" fill="#4d2d6e" stroke="#4d2d6e"></path><path d="M622.6 364L674.1 355L652.9 281Z" fill="#d91540" stroke="#d91540"></path><path d="M171.6 600L249.9 600L233.1 511Z" fill="#e74800" stroke="#e74800"></path><path d="M440.7 600L534.3 600L526.6 552Z" fill="#9f176b" stroke="#9f176b"></path><path d="M526.6 552L582.9 600L576.9 487Z" fill="#692a72" stroke="#692a72"></path><path d="M576.9 487L688.9 392L571.6 417Z" fill="#852271" stroke="#852271"></path><path d="M534.3 600L546.6 599L526.6 552Z" fill="#4d2d6e" stroke="#4d2d6e"></path><path d="M90.3 276L160.6 339L232.9 264Z" fill="#9f176b" stroke="#9f176b"></path><path d="M134.9 338L61.6 405L165.6 424Z" fill="#ca0152" stroke="#ca0152"></path><path d="M165.6 424L125.6 530L202.1 505Z" fill="#d91540" stroke="#d91540"></path><path d="M202.1 505L171.6 600L233.1 511Z" fill="#692a72" stroke="#692a72"></path><path d="M652.9 281L641.1 184L610.6 187Z" fill="#e74800" stroke="#e74800"></path><path d="M610.6 187L636.9 140L571.3 175Z" fill="#e74800" stroke="#e74800"></path><path d="M650.9 157L641.1 184L673.1 175Z" fill="#d91540" stroke="#d91540"></path><path d="M696.9 390L688.9 392L723.1 409Z" fill="#9f176b" stroke="#9f176b"></path><path d="M723.4 188L673.1 175L652.9 281Z" fill="#b60760" stroke="#b60760"></path><path d="M120.6 139L90.3 276L232.9 264Z" fill="#322d66" stroke="#322d66"></path><path d="M723.1 409L688.9 392L706.4 492Z" fill="#692a72" stroke="#692a72"></path><path d="M688.9 392L696.9 390L674.1 355Z" fill="#9f176b" stroke="#9f176b"></path><path d="M90.3 276L74.3 298L90.6 310Z" fill="#322d66" stroke="#322d66"></path><path d="M65.6 501L125.6 530L165.6 424Z" fill="#322d66" stroke="#322d66"></path><path d="M316.1 111L177.9 107L234.1 155Z" fill="#9f176b" stroke="#9f176b"></path><path d="M234.1 155L120.6 139L232.9 264Z" fill="#9f176b" stroke="#9f176b"></path><path d="M0 330L0 348L74.3 298Z" fill="#9f176b" stroke="#9f176b"></path><path d="M270.1 0L177.9 107L316.1 111Z" fill="#692a72" stroke="#692a72"></path><path d="M319.4 0L316.1 111L335.4 111Z" fill="#b60760" stroke="#b60760"></path><path d="M397 0L335.4 111L433.7 111Z" fill="#162b5a" stroke="#162b5a"></path><path d="M61.6 405L134.9 338L90.6 310Z" fill="#692a72" stroke="#692a72"></path><path d="M534.3 600L582.9 600L546.6 599Z" fill="#ca0152" stroke="#ca0152"></path><path d="M546.6 599L582.9 600L526.6 552Z" fill="#e32f29" stroke="#e32f29"></path><path d="M650.9 157L636.9 140L641.1 184Z" fill="#4d2d6e" stroke="#4d2d6e"></path><path d="M641.1 184L636.9 140L610.6 187Z" fill="#4d2d6e" stroke="#4d2d6e"></path><path d="M482.3 0L397 0L444 111Z" fill="#9f176b" stroke="#9f176b"></path><path d="M673.1 175L641.1 184L652.9 281Z" fill="#852271" stroke="#852271"></path><path d="M582.9 600L637.9 567L576.9 487Z" fill="#b60760" stroke="#b60760"></path><path d="M0 348L61.6 405L90.6 310Z" fill="#ca0152" stroke="#ca0152"></path><path d="M134.9 577L171.6 600L202.1 505Z" fill="#ca0152" stroke="#ca0152"></path><path d="M599.6 600L637.9 567L582.9 600Z" fill="#4d2d6e" stroke="#4d2d6e"></path><path d="M673.1 175L649.6 141L650.9 157Z" fill="#852271" stroke="#852271"></path><path d="M650.9 157L649.6 141L636.9 140Z" fill="#692a72" stroke="#692a72"></path><path d="M519 20L444 111L557.6 130Z" fill="#d91540" stroke="#d91540"></path><path d="M723.4 188L652.9 281L764.1 277Z" fill="#162b5a" stroke="#162b5a"></path><path d="M177.9 107L120.6 139L234.1 155Z" fill="#b60760" stroke="#b60760"></path><path d="M99.3 600L134.9 577L76.3 572Z" fill="#d91540" stroke="#d91540"></path><path d="M125.6 530L134.9 577L202.1 505Z" fill="#b60760" stroke="#b60760"></path><path d="M706.4 492L688.9 392L576.9 487Z" fill="#692a72" stroke="#692a72"></path><path d="M696.9 390L762.4 350L674.1 355Z" fill="#b60760" stroke="#b60760"></path><path d="M177.9 107L131.6 116L120.6 139Z" fill="#e74800" stroke="#e74800"></path><path d="M589.6 59L557.6 130L636.9 140Z" fill="#322d66" stroke="#322d66"></path><path d="M444 111L397 0L433.7 111Z" fill="#b60760" stroke="#b60760"></path><path d="M177.9 107L132.6 66L131.6 116Z" fill="#322d66" stroke="#322d66"></path><path d="M637.9 567L706.4 492L576.9 487Z" fill="#ca0152" stroke="#ca0152"></path><path d="M397 0L336.7 0L335.4 111Z" fill="#4d2d6e" stroke="#4d2d6e"></path><path d="M646.9 19L589.6 59L636.9 140Z" fill="#162b5a" stroke="#162b5a"></path><path d="M589.6 59L519 20L557.6 130Z" fill="#322d66" stroke="#322d66"></path><path d="M336.7 0L319.4 0L335.4 111Z" fill="#e32f29" stroke="#e32f29"></path><path d="M319.4 0L308.1 2L316.1 111Z" fill="#4d2d6e" stroke="#4d2d6e"></path><path d="M0 385L41.3 431L61.6 405Z" fill="#4d2d6e" stroke="#4d2d6e"></path><path d="M61.6 405L65.6 501L165.6 424Z" fill="#b60760" stroke="#b60760"></path><path d="M41.3 431L65.6 501L61.6 405Z" fill="#852271" stroke="#852271"></path><path d="M519 20L482.3 0L444 111Z" fill="#4d2d6e" stroke="#4d2d6e"></path><path d="M319.4 0L270.1 0L308.1 2Z" fill="#d91540" stroke="#d91540"></path><path d="M308.1 2L270.1 0L316.1 111Z" fill="#4d2d6e" stroke="#4d2d6e"></path><path d="M673.1 175L756.1 133L649.6 141Z" fill="#162b5a" stroke="#162b5a"></path><path d="M584.6 0L571.9 0L589.6 59Z" fill="#ca0152" stroke="#ca0152"></path><path d="M764.1 277L652.9 281L674.1 355Z" fill="#322d66" stroke="#322d66"></path><path d="M589.6 59L545.3 10L519 20Z" fill="#ca0152" stroke="#ca0152"></path><path d="M519 20L545.3 10L482.3 0Z" fill="#e32f29" stroke="#e32f29"></path><path d="M571.9 0L545.3 10L589.6 59Z" fill="#d91540" stroke="#d91540"></path><path d="M768.1 358L762.4 350L723.1 409Z" fill="#852271" stroke="#852271"></path><path d="M723.1 409L762.4 350L696.9 390Z" fill="#b60760" stroke="#b60760"></path><path d="M270.1 0L159.9 46L177.9 107Z" fill="#692a72" stroke="#692a72"></path><path d="M131.6 116L48.3 139L120.6 139Z" fill="#e32f29" stroke="#e32f29"></path><path d="M159.9 46L132.6 66L177.9 107Z" fill="#692a72" stroke="#692a72"></path><path d="M0 330L74.3 298L0 229Z" fill="#322d66" stroke="#322d66"></path><path d="M774.4 401L768.1 358L723.1 409Z" fill="#322d66" stroke="#322d66"></path><path d="M762.4 350L764.1 277L674.1 355Z" fill="#9f176b" stroke="#9f176b"></path><path d="M76.3 572L125.6 530L65.6 501Z" fill="#4d2d6e" stroke="#4d2d6e"></path><path d="M76.3 572L134.9 577L125.6 530Z" fill="#d91540" stroke="#d91540"></path><path d="M134.9 577L99.3 600L171.6 600Z" fill="#852271" stroke="#852271"></path><path d="M824.7 356L764.1 277L762.4 350Z" fill="#322d66" stroke="#322d66"></path><path d="M0 564L76.3 572L65.6 501Z" fill="#162b5a" stroke="#162b5a"></path><path d="M74.3 298L0 348L90.6 310Z" fill="#4d2d6e" stroke="#4d2d6e"></path><path d="M41.3 431L0 464L65.6 501Z" fill="#b60760" stroke="#b60760"></path><path d="M74.3 298L90.3 276L0 229Z" fill="#852271" stroke="#852271"></path><path d="M48.3 139L90.3 276L120.6 139Z" fill="#d91540" stroke="#d91540"></path><path d="M159.9 46L134.3 53L132.6 66Z" fill="#d91540" stroke="#d91540"></path><path d="M132.6 66L48.3 139L131.6 116Z" fill="#ca0152" stroke="#ca0152"></path><path d="M117.9 0L134.3 53L159.9 46Z" fill="#162b5a" stroke="#162b5a"></path><path d="M0 348L0 385L61.6 405Z" fill="#d91540" stroke="#d91540"></path><path d="M706.4 492L774.4 401L723.1 409Z" fill="#ca0152" stroke="#ca0152"></path><path d="M768.1 358L824.7 356L762.4 350Z" fill="#9f176b" stroke="#9f176b"></path><path d="M584.6 0L589.6 59L646.9 19Z" fill="#b60760" stroke="#b60760"></path><path d="M545.3 10L571.9 0L482.3 0Z" fill="#e32f29" stroke="#e32f29"></path><path d="M0 45L48.3 139L132.6 66Z" fill="#ca0152" stroke="#ca0152"></path><path d="M0 229L-10.7 335L0 330Z" fill="#4d2d6e" stroke="#4d2d6e"></path><path d="M0 330L-10.7 335L0 348Z" fill="#852271" stroke="#852271"></path><path d="M0 348L-10.7 335L0 385Z" fill="#692a72" stroke="#692a72"></path><path d="M646.9 19L636.9 140L649.6 141Z" fill="#852271" stroke="#852271"></path><path d="M-6.7 447L41.3 431L0 385Z" fill="#ca0152" stroke="#ca0152"></path><path d="M-6.7 447L0 464L41.3 431Z" fill="#e74800" stroke="#e74800"></path><path d="M10.3 172L0 229L90.3 276Z" fill="#b60760" stroke="#b60760"></path><path d="M-10.7 335L-6.7 447L0 385Z" fill="#322d66" stroke="#322d66"></path><path d="M0 164L10.3 172L48.3 139Z" fill="#4d2d6e" stroke="#4d2d6e"></path><path d="M48.3 139L10.3 172L90.3 276Z" fill="#ca0152" stroke="#ca0152"></path><path d="M748.4 46L646.9 19L649.6 141Z" fill="#b60760" stroke="#b60760"></path><path d="M756.1 133L673.1 175L723.4 188Z" fill="#4d2d6e" stroke="#4d2d6e"></path><path d="M760.7 158L723.4 188L792.4 173Z" fill="#d91540" stroke="#d91540"></path><path d="M782.4 157L760.7 158L792.4 173Z" fill="#852271" stroke="#852271"></path><path d="M760.7 158L760.1 155L723.4 188Z" fill="#d91540" stroke="#d91540"></path><path d="M0 229L0 185L-10.7 335Z" fill="#d91540" stroke="#d91540"></path><path d="M10.3 172L0 185L0 229Z" fill="#b60760" stroke="#b60760"></path><path d="M782.4 157L756.1 133L760.1 155Z" fill="#9f176b" stroke="#9f176b"></path><path d="M760.1 155L756.1 133L723.4 188Z" fill="#162b5a" stroke="#162b5a"></path><path d="M0 45L0 164L48.3 139Z" fill="#ca0152" stroke="#ca0152"></path><path d="M10.3 172L0 164L0 185Z" fill="#4d2d6e" stroke="#4d2d6e"></path><path d="M0 185L0 164L-10.7 335Z" fill="#852271" stroke="#852271"></path><path d="M637.9 567L751.1 590L706.4 492Z" fill="#ca0152" stroke="#ca0152"></path><path d="M706.4 492L829.4 504L774.4 401Z" fill="#4d2d6e" stroke="#4d2d6e"></path><path d="M599.6 600L751.1 590L637.9 567Z" fill="#e74800" stroke="#e74800"></path><path d="M884.7 448L824.7 356L774.4 401Z" fill="#322d66" stroke="#322d66"></path><path d="M774.4 401L824.7 356L768.1 358Z" fill="#9f176b" stroke="#9f176b"></path><path d="M760.7 158L782.4 157L760.1 155Z" fill="#e74800" stroke="#e74800"></path><path d="M792.4 173L723.4 188L808.7 196Z" fill="#692a72" stroke="#692a72"></path><path d="M756.1 133L748.4 46L649.6 141Z" fill="#d91540" stroke="#d91540"></path><path d="M270.1 0L117.9 0L159.9 46Z" fill="#ca0152" stroke="#ca0152"></path><path d="M134.3 53L98.6 0L132.6 66Z" fill="#852271" stroke="#852271"></path><path d="M808.7 196L723.4 188L764.1 277Z" fill="#e32f29" stroke="#e32f29"></path><path d="M0 464L0 564L65.6 501Z" fill="#9f176b" stroke="#9f176b"></path><path d="M76.3 572L0 600L99.3 600Z" fill="#e74800" stroke="#e74800"></path><path d="M-6.7 447L0 564L0 464Z" fill="#162b5a" stroke="#162b5a"></path><path d="M900 251L808.7 196L764.1 277Z" fill="#ca0152" stroke="#ca0152"></path><path d="M754.4 0L748.4 46L781.1 0Z" fill="#e74800" stroke="#e74800"></path><path d="M117.9 0L98.6 0L134.3 53Z" fill="#4d2d6e" stroke="#4d2d6e"></path><path d="M599.6 600L765.1 600L751.1 590Z" fill="#e74800" stroke="#e74800"></path><path d="M751.1 590L829.4 504L706.4 492Z" fill="#4d2d6e" stroke="#4d2d6e"></path><path d="M-6.7 447L0 600L0 564Z" fill="#322d66" stroke="#322d66"></path><path d="M0 564L0 600L76.3 572Z" fill="#e32f29" stroke="#e32f29"></path><path d="M786.4 600L829.4 504L751.1 590Z" fill="#b60760" stroke="#b60760"></path><path d="M748.4 46L835.7 0L781.1 0Z" fill="#162b5a" stroke="#162b5a"></path><path d="M835.7 0L748.4 46L756.1 133Z" fill="#162b5a" stroke="#162b5a"></path><path d="M646.9 19L754.4 0L584.6 0Z" fill="#e32f29" stroke="#e32f29"></path><path d="M765.1 600L786.4 600L751.1 590Z" fill="#ca0152" stroke="#ca0152"></path><path d="M98.6 0L0 45L132.6 66Z" fill="#ca0152" stroke="#ca0152"></path><path d="M0 164L0 45L-10.7 335Z" fill="#e74800" stroke="#e74800"></path><path d="M756.1 133L782.4 157L835.7 0Z" fill="#ca0152" stroke="#ca0152"></path><path d="M748.4 46L754.4 0L646.9 19Z" fill="#4d2d6e" stroke="#4d2d6e"></path><path d="M786.4 600L826.4 600L829.4 504Z" fill="#e74800" stroke="#e74800"></path><path d="M879.7 474L884.7 448L829.4 504Z" fill="#322d66" stroke="#322d66"></path><path d="M829.4 504L884.7 448L774.4 401Z" fill="#e32f29" stroke="#e32f29"></path><path d="M824.7 356L900 282L764.1 277Z" fill="#692a72" stroke="#692a72"></path><path d="M808.7 196L903.7 161L792.4 173Z" fill="#e74800" stroke="#e74800"></path><path d="M880.7 474L879.7 474L900 527Z" fill="#322d66" stroke="#322d66"></path><path d="M900 527L879.7 474L829.4 504Z" fill="#b60760" stroke="#b60760"></path><path d="M879.7 474L880.7 474L884.7 448Z" fill="#b60760" stroke="#b60760"></path><path d="M98.6 0L14.3 0L0 45Z" fill="#ca0152" stroke="#ca0152"></path><path d="M900 419L900 282L824.7 356Z" fill="#9f176b" stroke="#9f176b"></path><path d="M884.7 448L900 419L824.7 356Z" fill="#4d2d6e" stroke="#4d2d6e"></path><path d="M900 421L900 419L884.7 448Z" fill="#d91540" stroke="#d91540"></path><path d="M900 470L900 421L884.7 448Z" fill="#b60760" stroke="#b60760"></path><path d="M14.3 0L0 0L0 45Z" fill="#322d66" stroke="#322d66"></path><path d="M0 45L0 0L-10.7 335Z" fill="#162b5a" stroke="#162b5a"></path><path d="M900 282L900 251L764.1 277Z" fill="#9f176b" stroke="#9f176b"></path><path d="M900 251L898.7 244L808.7 196Z" fill="#e74800" stroke="#e74800"></path><path d="M900 251L900 241L898.7 244Z" fill="#d91540" stroke="#d91540"></path><path d="M898.7 244L900 241L808.7 196Z" fill="#322d66" stroke="#322d66"></path><path d="M903.7 161L782.4 157L792.4 173Z" fill="#e32f29" stroke="#e32f29"></path><path d="M900 527L900 470L880.7 474Z" fill="#852271" stroke="#852271"></path><path d="M880.7 474L900 470L884.7 448Z" fill="#692a72" stroke="#692a72"></path><path d="M900 241L900 187L808.7 196Z" fill="#e74800" stroke="#e74800"></path><path d="M826.4 600L900 527L829.4 504Z" fill="#e74800" stroke="#e74800"></path><path d="M900 251L903.7 161L900 241Z" fill="#852271" stroke="#852271"></path><path d="M900 241L903.7 161L900 187Z" fill="#d91540" stroke="#d91540"></path><path d="M900 187L903.7 161L808.7 196Z" fill="#e32f29" stroke="#e32f29"></path><path d="M900 282L903.7 161L900 251Z" fill="#e74800" stroke="#e74800"></path><path d="M908.7 600L903.7 161L900 282Z" fill="#162b5a" stroke="#162b5a"></path><path d="M908.7 600L900 282L900 419Z" fill="#162b5a" stroke="#162b5a"></path><path d="M908.7 600L900 419L900 421Z" fill="#d91540" stroke="#d91540"></path><path d="M908.7 600L900 421L900 470Z" fill="#ca0152" stroke="#ca0152"></path><path d="M903.7 161L835.7 0L782.4 157Z" fill="#d91540" stroke="#d91540"></path><path d="M826.4 600L900 600L900 527Z" fill="#9f176b" stroke="#9f176b"></path><path d="M900 527L908.7 600L900 470Z" fill="#d91540" stroke="#d91540"></path><path d="M900 17L840.7 -6L835.7 0Z" fill="#e32f29" stroke="#e32f29"></path><path d="M835.7 0L840.7 -6L781.1 0Z" fill="#9f176b" stroke="#9f176b"></path><path d="M781.1 0L840.7 -6L754.4 0Z" fill="#9f176b" stroke="#9f176b"></path><path d="M754.4 0L840.7 -6L584.6 0Z" fill="#d91540" stroke="#d91540"></path><path d="M584.6 0L840.7 -6L571.9 0Z" fill="#162b5a" stroke="#162b5a"></path><path d="M571.9 0L840.7 -6L482.3 0Z" fill="#ca0152" stroke="#ca0152"></path><path d="M482.3 0L840.7 -6L397 0Z" fill="#852271" stroke="#852271"></path><path d="M397 0L840.7 -6L336.7 0Z" fill="#852271" stroke="#852271"></path><path d="M336.7 0L840.7 -6L319.4 0Z" fill="#692a72" stroke="#692a72"></path><path d="M319.4 0L840.7 -6L270.1 0Z" fill="#b60760" stroke="#b60760"></path><path d="M270.1 0L840.7 -6L117.9 0Z" fill="#322d66" stroke="#322d66"></path><path d="M117.9 0L840.7 -6L98.6 0Z" fill="#162b5a" stroke="#162b5a"></path><path d="M98.6 0L840.7 -6L14.3 0Z" fill="#b60760" stroke="#b60760"></path><path d="M14.3 0L840.7 -6L0 0Z" fill="#162b5a" stroke="#162b5a"></path><path d="M900 600L908.7 600L900 527Z" fill="#4d2d6e" stroke="#4d2d6e"></path><path d="M903.7 161L900 17L835.7 0Z" fill="#9f176b" stroke="#9f176b"></path><path d="M903.7 161L900 0L900 17Z" fill="#322d66" stroke="#322d66"></path><path d="M900 17L900 0L840.7 -6Z" fill="#852271" stroke="#852271"></path></g></svg>